<svg width="70" height="70" viewBox="0 0 70 70" fill="none" xmlns="http://www.w3.org/2000/svg">
<path d="M52.9182 33.6045L19.8967 0.583119C19.1193 -0.194373 17.8723 -0.194373 17.0948 0.583119C16.3173 1.36061 16.3173 2.60753 17.0948 3.38503L48.708 34.9982L17.0948 66.6113C16.3173 67.3888 16.3173 68.6357 17.0948 69.4132C17.4762 69.7946 17.9897 70 18.4885 70C18.9872 70 19.5007 69.8093 19.8821 69.4132L52.9035 36.3918C53.681 35.629 53.681 34.3674 52.9182 33.6045Z" fill="white"/>
<path d="M52.4065 33.6045L19.385 0.583119C18.6075 -0.194373 17.3606 -0.194373 16.5831 0.583119C15.8056 1.36061 15.8056 2.60753 16.5831 3.38503L48.1963 34.9982L16.5831 66.6113C15.8056 67.3888 15.8056 68.6357 16.5831 69.4132C16.9645 69.7946 17.478 70 17.9767 70C18.4755 70 18.9889 69.8093 19.3704 69.4132L52.3918 36.3918C53.1693 35.629 53.1693 34.3674 52.4065 33.6045Z" fill="white"/>
</svg>
